<?xml version="1.0" standalone="no"?>
<!DOCTYPE svg PUBLIC "-//W3C//DTD SVG 20010904//EN"
 "http://www.w3.org/TR/2001/REC-SVG-20010904/DTD/svg10.dtd">
<svg fill="black" xmlns="http://www.w3.org/2000/svg"
 width="820.000000pt" height="420.000000pt" viewBox="0 0 825.000000 421.000000"
 preserveAspectRatio="xMidYMid meet">
<g transform="translate(0.000000,421.000000) scale(0.100000,-0.100000)"
stroke="none">
<path d="M6428 4141 c-108 -30 -176 -69 -253 -146 -189 -191 -256 -469 -184
-764 56 -225 163 -436 456 -896 257 -403 364 -637 403 -880 59 -362 -102 -554
-470 -559 -139 -1 -215 7 -374 39 -192 40 -462 108 -473 119 -9 8 -43 -13 -43
-27 0 -11 120 -42 410 -103 259 -56 487 -75 648 -55 252 31 382 162 382 384 0
273 -145 613 -529 1245 -278 457 -367 721 -332 987 17 122 37 187 99 313 56
112 184 224 300 263 96 32 238 24 342 -20 196 -81 362 -248 480 -481 42 -83
106 -279 115 -353 4 -31 12 -60 17 -63 6 -4 21 5 35 18 24 25 25 27 13 84 -30
152 -99 329 -173 449 -38 60 -34 55 -95 130 -212 260 -518 385 -774 316z"/>
<path d="M7821 3404 c-35 -16 -168 -103 -192 -126 -8 -8 -41 -35 -74 -62 -94
-76 -192 -170 -596 -572 l-376 -375 35 -69 c19 -39 40 -70 45 -70 10 0 88 63
162 132 22 20 49 45 61 55 12 10 54 48 95 84 41 37 119 106 174 154 55 48 135
121 178 162 71 68 77 77 77 113 0 22 -3 40 -6 40 -3 0 -33 -23 -67 -51 -70
-59 -137 -96 -137 -77 0 26 39 75 136 173 186 189 364 329 364 288 0 -19 -47
-83 -101 -138 -55 -56 -59 -63 -59 -107 0 -27 3 -48 6 -48 9 0 185 179 251
255 100 116 138 188 122 233 -10 26 -46 28 -98 6z"/>
<path d="M7461 3004 c-18 -23 -21 -41 -21 -138 0 -61 -4 -136 -10 -166 -18
-105 -39 -215 -65 -335 -127 -588 -174 -902 -175 -1160 0 -108 21 -293 45
-390 l14 -60 -5 70 c-3 39 -10 93 -16 122 -12 56 -6 286 12 438 19 173 70 450
125 680 47 201 53 229 80 355 14 69 30 143 35 165 5 22 16 106 25 187 14 118
15 157 5 202 -6 31 -15 56 -20 56 -5 0 -18 -12 -29 -26z"/>
<path d="M6083 1778 c-762 -754 -1488 -1481 -1477 -1477 11 4 85 66 194 164
31 28 89 79 129 115 41 36 102 90 135 120 34 30 132 116 217 191 442 392 863
766 993 882 17 16 91 81 164 145 76 68 132 124 132 134 0 17 -67 128 -77 128
-2 0 -187 -181 -410 -402z"/>
<path d="M2050 1553 c-342 -26 -581 -76 -778 -162 -89 -38 -208 -109 -199
-117 3 -3 32 8 64 25 120 60 297 109 523 144 135 20 178 22 610 22 301 0 509
-5 590 -13 69 -7 197 -20 285 -28 384 -37 887 -108 1295 -185 121 -23 327 -64
425 -84 44 -10 107 -23 140 -30 33 -7 112 -25 174 -39 96 -23 119 -25 138 -15
24 13 29 24 15 33 -19 12 -611 159 -787 196 -94 20 -210 42 -260 50 -27 5 -88
15 -135 23 -206 36 -449 76 -495 82 -27 3 -93 12 -145 20 -377 56 -806 86
-1180 83 -129 -1 -255 -3 -280 -5z"/>
</g>
</svg>
