<?xml version="1.0" standalone="no"?>
<!DOCTYPE svg PUBLIC "-//W3C//DTD SVG 20010904//EN"
 "http://www.w3.org/TR/2001/REC-SVG-20010904/DTD/svg10.dtd">
<svg xmlns="http://www.w3.org/2000/svg"
 width="685.000000pt" height="446.000000pt" viewBox="0 0 685.000000 446.000000"
 preserveAspectRatio="xMidYMid meet">
<g transform="translate(0.000000,446.000000) scale(0.100000,-0.100000)"
fill="#000000" stroke="none">
<path d="M1050 4038 c-35 -36 -63 -90 -79 -153 -6 -22 -16 -48 -23 -58 -32
-42 -504 -126 -721 -127 -43 -1 -49 -2 -33 -12 45 -26 524 16 665 58 60 18 87
13 76 -14 -9 -22 -52 -188 -70 -267 -14 -64 -49 -207 -65 -265 -5 -19 -23 -96
-41 -170 -17 -74 -34 -142 -37 -150 -3 -8 -11 -40 -18 -70 -6 -30 -24 -100
-39 -155 -14 -55 -31 -120 -35 -145 -5 -25 -14 -61 -20 -80 -5 -19 -41 -165
-80 -325 -39 -159 -75 -306 -80 -325 -14 -48 -31 -119 -37 -155 -3 -16 -9 -34
-13 -40 -4 -5 -11 -35 -15 -65 -4 -30 -11 -59 -15 -65 -4 -5 -11 -32 -15 -60
-4 -27 -10 -54 -15 -60 -4 -5 -10 -23 -13 -40 -3 -16 -13 -59 -22 -95 -9 -36
-20 -83 -25 -105 -5 -22 -16 -67 -25 -100 -9 -33 -23 -85 -30 -115 -39 -169
-58 -247 -65 -261 -5 -9 -10 -36 -13 -60 -2 -24 -2 -34 0 -22 2 13 9 23 14 23
5 0 9 9 9 20 0 11 11 52 24 92 13 40 34 107 46 148 12 41 30 100 40 130 37
112 80 257 80 269 0 6 4 19 9 29 6 9 20 51 31 92 12 41 30 100 40 130 10 30
28 89 40 130 12 41 25 86 30 100 9 24 54 173 120 390 18 58 43 139 56 180 13
41 24 82 24 92 0 9 4 19 9 22 4 3 11 24 15 46 3 23 10 49 15 58 9 18 28 78 56
177 9 33 20 69 24 80 5 11 15 45 24 75 28 94 98 324 107 350 5 14 18 59 30
100 12 41 30 100 40 130 10 30 28 89 40 130 12 41 32 107 44 145 13 39 29 91
36 117 14 46 16 48 70 64 37 12 93 17 170 18 103 0 121 -3 171 -26 62 -28 145
-106 170 -159 9 -19 22 -45 28 -59 7 -14 18 -62 25 -106 14 -88 4 -210 -27
-324 -18 -69 -85 -270 -96 -290 -5 -9 -12 -31 -16 -50 -4 -19 -11 -41 -16 -50
-14 -24 -50 -169 -61 -240 -12 -87 -3 -213 22 -280 50 -136 168 -255 315 -316
67 -28 76 -29 230 -29 176 0 224 10 495 95 69 21 188 57 265 80 77 22 149 45
160 50 11 5 45 14 75 21 49 10 64 9 122 -9 72 -23 155 -36 327 -52 289 -27
411 -86 455 -220 9 -27 16 -58 16 -70 0 -26 26 -124 43 -160 23 -50 81 -122
116 -144 66 -40 118 -51 246 -50 108 1 138 6 305 49 263 67 296 74 385 86 177
23 248 -3 505 -183 208 -146 390 -192 750 -193 187 0 273 12 283 40 4 9 -6 8
-36 -3 -70 -26 -290 -21 -482 12 -275 47 -324 67 -530 221 -104 78 -216 141
-283 161 -53 15 -216 16 -267 2 -11 -3 -40 -9 -65 -13 -25 -4 -70 -14 -100
-21 -30 -8 -84 -21 -120 -29 -36 -8 -105 -24 -155 -35 -117 -27 -282 -30 -340
-5 -100 43 -157 130 -171 265 -19 176 -117 285 -299 334 -77 20 -218 43 -320
51 -90 7 -185 25 -185 35 0 3 23 14 52 25 46 16 205 101 283 150 69 44 195
147 246 202 60 65 169 220 169 241 0 6 5 12 10 12 6 0 10 5 10 11 0 5 12 36
26 67 94 205 80 418 -36 531 -124 120 -389 119 -565 -3 -40 -28 -133 -126
-141 -148 -10 -34 -22 -18 -29 40 -21 174 -112 296 -255 343 -62 19 -173 17
-238 -5 -121 -41 -242 -147 -306 -268 -34 -64 -59 -202 -53 -291 6 -92 26
-209 38 -221 5 -6 9 -17 9 -25 0 -41 140 -293 207 -376 54 -65 159 -168 217
-211 77 -58 85 -71 49 -80 -36 -8 -211 -60 -283 -84 -370 -122 -564 -161 -703
-140 -133 21 -235 84 -318 196 -22 30 -42 67 -46 84 -3 17 -10 33 -14 36 -13
7 -11 261 1 269 6 3 10 19 10 34 0 28 25 114 95 326 76 230 94 317 95 449 0
153 -38 264 -127 373 -98 119 -290 167 -483 120 -35 -9 -66 -14 -69 -12 -2 3
-6 30 -7 61 -6 105 -60 136 -124 72z m2042 -412 c88 -39 139 -113 159 -226 6
-36 17 -101 25 -145 8 -44 17 -95 21 -112 5 -29 23 -48 23 -24 0 9 80 110 163
204 68 79 151 132 234 151 260 58 400 -61 364 -311 -20 -136 -119 -323 -241
-456 -129 -140 -326 -265 -569 -362 -113 -45 -98 -49 -241 63 -162 126 -279
284 -373 502 -47 110 -66 262 -49 382 23 155 130 283 282 338 75 26 138 25
202 -4z"/>
</g>
</svg>
